#!OML:ASF E:\Style6\Style6.ASF
:FULLY-SPECIFIED
:DEGREES
2795
root -0.813861 17.8775 0.41102 12.2944 11.7892 -0.470375
lowerback 9.96806 -0.35073 3.52047
upperback 1.64474 -0.0055586 1.79596
thorax -3.87754 -0.0352151 -0.114211
lowerneck -11.5683 -4.16087 2.1069
upperneck -19.0088 -6.68727 -7.01763
head -4.16598 -3.17578 -2.52176
rclavicle 6.75868e-015 -3.18055e-015
rhumerus 94.874 -40.407 -64.2488
rradius 44.4499
rwrist -8.55548
rhand -32.254 10.8426
rfingers 7.12502
rthumb -5.49396 -19.0662
lclavicle 6.75868e-015 -3.18055e-015
lhumerus 35.4507 10.7769 -14.8239
lradius 80.9634
lwrist 40.3178
lhand 8.83042 11.4585
lfingers 7.12502
lthumb 34.0162 38.2387
rfemur -27.1253 -8.0366 25.4037
rtibia 32.289
rfoot -13.5592 -15.0234
rtoes 2.93705
lfemur -26.1523 4.23818 -13.0777
ltibia 27.1222
lfoot -7.82397 -6.67028
ltoes -16.9104
2796
root -0.823816 17.8806 0.406028 12.3407 11.7822 -0.477632
lowerback 10.0167 -0.298403 3.54284
upperback 1.61915 0.0698691 1.80453
thorax -3.92913 0.00089811 -0.127496
lowerneck -11.5608 -4.23739 1.92365
upperneck -18.9815 -6.74938 -6.83933
head -4.1522 -3.20105 -2.43496
rclavicle -1.43125e-014 -7.15625e-015
rhumerus 96.9928 -39.1451 -66.5725
rradius 43.8538
rwrist -9.07859
rhand -32.5619 10.2798
rfingers 7.12502
rthumb -5.79121 -19.621
lclavicle -1.43125e-014 -7.15625e-015
lhumerus 35.4181 10.8775 -14.6251
lradius 80.8203
lwrist 40.0574
lhand 8.79746 11.3945
lfingers 7.12502
lthumb 33.9849 38.1816
rfemur -27.1351 -7.945 25.4427
rtibia 32.15
rfoot -13.4827 -15.1307
rtoes 2.80084
lfemur -26.1679 4.18243 -13.0346
ltibia 27.0155
lfoot -7.74019 -6.57694
ltoes -17.0294
2797
root -0.833084 17.8845 0.40143 12.3717 11.7956 -0.566824
lowerback 10.0746 -0.249376 3.66885
upperback 1.58843 0.153539 1.82846
thorax -3.99075 0.0395719 -0.184139
lowerneck -11.485 -4.28317 1.93862
upperneck -19.0916 -6.82125 -6.85175
head -4.20233 -3.23257 -2.43821
rclavicle -6.36111e-015 -3.97569e-015
rhumerus 98.6837 -37.9412 -68.4038
rradius 43.2758
rwrist -9.46303
rhand -33.0111 9.22492
rfingers 7.12502
rthumb -6.22494 -20.6636
lclavicle -6.36111e-015 -3.97569e-015
lhumerus 35.4343 11.0288 -14.3553
lradius 80.6563
lwrist 39.7295
lhand 8.94236 11.3594
lfingers 7.12502
lthumb 34.1225 38.1159
rfemur -27.1255 -7.83985 25.5627
rtibia 31.9933
rfoot -13.4759 -15.176
rtoes 3.2314
lfemur -26.2165 4.10472 -12.8964
ltibia 26.9395
lfoot -7.65928 -6.47247
ltoes -17.1196
2798
root -0.841528 17.8896 0.398034 12.3451 11.7971 -0.691551
lowerback 10.2074 -0.236156 3.84137
upperback 1.5453 0.199525 1.84803
thorax -4.10774 0.0579247 -0.266332
lowerneck -11.2968 -4.28644 2.06432
upperneck -19.3531 -6.86701 -6.9463
head -4.32072 -3.24983 -2.48205
rclavicle 2.64384e-014 -1.43125e-014
rhumerus 99.9508 -36.6781 -69.7959
rradius 42.7022
rwrist -9.64922
rhand -33.7342 7.66763
rfingers 7.12502
rthumb -6.92303 -22.1992
lclavicle 2.64384e-014 -1.43125e-014
lhumerus 35.3894 11.1432 -14.1994
lradius 80.5088
lwrist 39.3739
lhand 9.06111 11.3319
lfingers 7.12502
lthumb 34.2353 38.0631
rfemur -27.049 -7.73829 25.7077
rtibia 31.834
rfoot -13.4751 -15.1973
rtoes 3.70578
lfemur -26.2196 4.04955 -12.728
ltibia 26.9048
lfoot -7.62044 -6.34606
ltoes -17.3966
2799
root -0.848547 17.8906 0.393433 12.3589 11.7816 -0.726126
lowerback 10.2987 -0.215272 3.92492
upperback 1.52848 0.242108 1.84782
thorax -4.1743 0.0765673 -0.319047
lowerneck -11.1472 -4.30822 2.15492
upperneck -19.5849 -6.92342 -6.97143
head -4.42209 -3.27431 -2.49938
rclavicle 2.82274e-014 -8.74653e-015
rhumerus 100.925 -35.5263 -70.7211
rradius 42.2577
rwrist -10.1358
rhand -34.6867 6.24816
rfingers 7.12502
rthumb -7.84242 -23.5864
lclavicle 2.82274e-014 -8.74653e-015
lhumerus 35.4004 11.3683 -14.0966
lradius 80.3085
lwrist 39.0679
lhand 8.95347 11.2945
lfingers 7.12502
lthumb 34.1331 38.0486
rfemur -27.0216 -7.63872 25.743
rtibia 31.7216
rfoot -13.5482 -15.122
rtoes 4.64663
lfemur -26.2143 3.89799 -12.6419
ltibia 26.863
lfoot -7.57012 -6.13376
ltoes -17.4607
2800
root -0.854623 17.891 0.389069 12.403 11.75 -0.664331
lowerback 10.3425 -0.184428 3.91029
upperback 1.55636 0.282049 1.83287
thorax -4.16816 0.0967784 -0.331949
lowerneck -11.1854 -4.29974 2.20135
upperneck -19.69 -6.92692 -7.01081
head -4.45174 -3.27582 -2.52025
rclavicle -3.04141e-014 2.22639e-014
rhumerus 101.597 -34.6232 -71.1283
rradius 42.0327
rwrist -11.1131
rhand -35.5532 5.4867
rfingers 7.12502
rthumb -8.67866 -24.3149
lclavicle -3.04141e-014 2.22639e-014
lhumerus 35.4006 11.7192 -14.0009
lradius 80.1327
lwrist 38.8206
lhand 8.81386 11.2963
lfingers 7.12502
lthumb 34.0005 38.0799
rfemur -27.0314 -7.60015 25.68
rtibia 31.6661
rfoot -13.6418 -14.9979
rtoes 5.72776
lfemur -26.2086 3.75856 -12.6659
ltibia 26.8244
lfoot -7.48936 -5.98328
ltoes -16.6527
2801
root -0.860958 17.892 0.383111 12.4664 11.7195 -0.553439
lowerback 10.4367 -0.166807 3.83541
upperback 1.57748 0.301348 1.82946
thorax -4.19813 0.107162 -0.296184
lowerneck -11.403 -4.27568 2.09373
upperneck -19.67 -6.87289 -6.94789
head -4.40476 -3.24913 -2.48951
rclavicle -9.14409e-015 1.43125e-014
rhumerus 102.078 -33.8187 -71.2557
rradius 41.9832
rwrist -12.1912
rhand -35.7671 5.24497
rfingers 7.12502
rthumb -8.88506 -24.548
lclavicle -9.14409e-015 1.43125e-014
lhumerus 35.2639 12.1078 -13.8597
lradius 80.0221
lwrist 38.5506
lhand 8.75248 11.1971
lfingers 7.12502
lthumb 33.9422 37.9937
rfemur -27.1097 -7.62257 25.5866
rtibia 31.6749
rfoot -13.624 -14.9496
rtoes 5.79184
lfemur -26.2397 3.6786 -12.7603
ltibia 26.7924
lfoot -7.40157 -5.89927
ltoes -15.4562
2802
root -0.868294 17.8909 0.376535 12.4879 11.6867 -0.562568
lowerback 10.5395 -0.139971 3.85361
upperback 1.60981 0.345592 1.87334
thorax -4.2202 0.129054 -0.266916
lowerneck -11.8248 -4.31501 1.75376
upperneck -19.3952 -6.83378 -6.64662
head -4.23563 -3.23332 -2.35185
rclavicle -2.20651e-014 -7.15625e-015
rhumerus 102.227 -33.2133 -70.8744
rradius 41.9846
rwrist -13.0399
rhand -35.7264 5.02962
rfingers 7.12502
rthumb -8.84576 -24.765
lclavicle -2.20651e-014 -7.15625e-015
lhumerus 35.1725 12.5456 -13.5474
lradius 79.8848
lwrist 38.215
lhand 8.69399 11.2221
lfingers 7.12502
lthumb 33.8866 38.0309
rfemur -27.193 -7.64619 25.6346
rtibia 31.7086
rfoot -13.5311 -14.9346
rtoes 5.24192
lfemur -26.2723 3.66509 -12.727
ltibia 26.7731
lfoot -7.30267 -5.85854
ltoes -14.1067
2803
root -0.874292 17.8901 0.371101 12.5103 11.6429 -0.515243
lowerback 10.6186 -0.109695 3.83225
upperback 1.62038 0.388087 1.89065
thorax -4.25201 0.150087 -0.24291
lowerneck -12.1471 -4.37327 1.43728
upperneck -19.0766 -6.81972 -6.34372
head -4.07041 -3.23008 -2.21547
rclavicle -1.25234e-014 6.36111e-015
rhumerus 101.851 -32.8846 -69.7742
rradius 41.94
rwrist -13.3768
rhand -35.4826 4.30836
rfingers 7.12502
rthumb -8.61055 -25.4961
lclavicle -1.25234e-014 6.36111e-015
lhumerus 35.1982 13.0023 -13.1629
lradius 79.7112
lwrist 37.9224
lhand 8.7301 11.3751
lfingers 7.12502
lthumb 33.9209 38.1764
rfemur -27.2558 -7.72165 25.6125
rtibia 31.7627
rfoot -13.5889 -14.7559
rtoes 5.73672
lfemur -26.2964 3.70151 -12.7723
ltibia 26.7688
lfoot -7.26512 -5.85457
ltoes -13.6287
